<svg width="113" height="17" viewBox="0 0 113 17" fill="none" xmlns="http://www.w3.org/2000/svg">
<path d="M0.933333 16V0.973333H5.15667L10.1033 7.90333V0.973333H15.12V16H10.85L5.95 9.09333V16H0.933333ZM15.8311 16V0.973333H27.5211V4.68333H20.8478V6.59667H26.6578V10.4H20.8478V12.29H27.5211V16H15.8311ZM26.6875 16L32.2408 8.39333L26.8975 0.973333H32.1242L34.8775 4.91667L37.6542 0.973333H42.8808L37.5375 8.39333L43.0908 16H37.7942L34.8775 11.9167L31.9842 16H26.6875ZM68.0395 16V0.973333H76.1595C77.4195 0.973333 78.4539 1.21444 79.2628 1.69667C80.0872 2.16333 80.6939 2.80889 81.0828 3.63333C81.4872 4.45778 81.6894 5.39889 81.6894 6.45667C81.6894 7.46778 81.4328 8.36222 80.9195 9.14C80.4061 9.90222 79.7606 10.5089 78.9828 10.96C79.2783 11.1933 79.5272 11.5356 79.7295 11.9867L81.4795 16H76.2528L74.7128 12.5233C74.6039 12.29 74.4872 12.1267 74.3628 12.0333C74.2383 11.94 74.0439 11.8933 73.7795 11.8933H73.0561V16H68.0395ZM73.0561 8.02H74.8995C76.0195 8.02 76.5795 7.49889 76.5795 6.45667C76.5795 5.39889 76.0583 4.87 75.0161 4.87H73.0561V8.02ZM81.9118 16V0.973333H86.9285V16H81.9118ZM87.6267 16V0.973333H95.7234C96.9834 0.973333 98.0178 1.23 98.8267 1.74333C99.6511 2.25667 100.266 2.94889 100.67 3.82C101.074 4.67556 101.277 5.62444 101.277 6.66667C101.277 7.74 101.043 8.70444 100.577 9.56C100.11 10.4156 99.4567 11.0922 98.6167 11.59C97.7767 12.0722 96.7811 12.3133 95.63 12.3133H92.6434V16H87.6267ZM92.6434 8.41667H94.4634C95.0234 8.41667 95.4434 8.26111 95.7234 7.95C96.0189 7.62333 96.1667 7.19556 96.1667 6.66667C96.1667 6.10667 96.0345 5.67111 95.77 5.36C95.5056 5.03333 95.1011 4.87 94.5567 4.87H92.6434V8.41667ZM106.107 16.2333C105.064 16.2333 104.069 16.1478 103.12 15.9767C102.187 15.8056 101.393 15.5644 100.74 15.2533V11.3333C101.471 11.6756 102.272 11.9556 103.143 12.1733C104.03 12.3911 104.839 12.5 105.57 12.5C106.192 12.5 106.667 12.4378 106.993 12.3133C107.336 12.1889 107.507 11.9556 107.507 11.6133C107.507 11.2244 107.25 10.9444 106.737 10.7733C106.223 10.5867 105.484 10.33 104.52 10.0033C103.524 9.66111 102.739 9.29556 102.163 8.90667C101.603 8.50222 101.199 8.02 100.95 7.46C100.701 6.88444 100.577 6.18444 100.577 5.36C100.577 2.28 102.716 0.74 106.993 0.74C107.522 0.74 108.082 0.778889 108.673 0.856666C109.28 0.918889 109.856 1.00444 110.4 1.11333C110.96 1.20667 111.434 1.31556 111.823 1.44V5.38333C111.03 5.07222 110.299 4.85444 109.63 4.73C108.977 4.59 108.378 4.52 107.833 4.52C107.289 4.52 106.791 4.56667 106.34 4.66C105.904 4.73778 105.687 4.95556 105.687 5.31333C105.687 5.60889 105.881 5.83444 106.27 5.99C106.659 6.13 107.312 6.32444 108.23 6.57333C109.459 6.91556 110.384 7.32 111.007 7.78667C111.644 8.25333 112.072 8.80556 112.29 9.44333C112.523 10.0656 112.64 10.7811 112.64 11.59C112.64 12.99 112.096 14.1178 111.007 14.9733C109.918 15.8133 108.284 16.2333 106.107 16.2333Z" fill="#261B1B"/>
<path d="M46.5192 16V4.63667H42.5059V0.973333H55.5725V4.63667H51.5359V16H46.5192ZM59.2295 16V4.63667H55.2161V0.973333H68.2828V4.63667H64.2461V16H59.2295Z" fill="#A60A33"/>
</svg>
