<svg width="73" height="48" viewBox="0 0 73 48" fill="none" xmlns="http://www.w3.org/2000/svg">
<path d="M63.4824 22.2479C63.4839 19.9979 62.8781 17.7896 61.7295 15.8576C60.5808 13.9256 58.9322 12.3422 56.9589 11.2756C54.9855 10.209 52.7612 9.69905 50.5223 9.80003C48.2834 9.90101 46.1135 10.6091 44.2434 11.8491C41.5592 9.45495 38.2883 7.82151 34.7671 7.11661C31.2458 6.41172 27.6011 6.66079 24.2074 7.83823C20.8138 9.01568 17.7936 11.079 15.4573 13.8163C13.121 16.5535 11.5528 19.8659 10.9138 23.413C7.84199 23.6895 4.99459 25.1443 2.96398 27.4747C0.933378 29.8052 -0.124074 32.8319 0.0116139 35.9251C0.147302 39.0184 1.46568 41.94 3.69248 44.0823C5.91928 46.2245 8.88305 47.4224 11.9672 47.4267H53.8036C55.9211 47.4313 57.9925 46.8061 59.7564 45.6298C61.5202 44.4536 62.8974 42.7791 63.7141 40.8178C64.5308 38.8564 64.7504 36.6962 64.3451 34.6096C63.9399 32.5231 62.928 30.6039 61.4372 29.0942C62.7749 27.0638 63.4863 24.6823 63.4824 22.2479ZM51.0835 14.3715C52.5026 14.3721 53.8949 14.7587 55.1125 15.4904C56.3301 16.2221 57.3273 17.2715 57.9981 18.5268C58.669 19.7822 58.9883 21.1966 58.9222 22.6197C58.8561 24.0427 58.407 25.4212 57.6227 26.6084C55.5485 25.782 53.2642 25.6487 51.1086 26.2284C50.949 22.3123 49.6612 18.5267 47.4013 15.3306C48.5307 14.7099 49.796 14.3804 51.0835 14.3715ZM53.8196 42.8487H11.9672C10.9815 42.8661 10.0022 42.6861 9.08653 42.3194C8.17084 41.9527 7.33707 41.4066 6.63389 40.7129C5.9307 40.0192 5.37218 39.1919 4.99092 38.2792C4.60967 37.3665 4.41331 36.3867 4.41331 35.3969C4.41331 34.4072 4.60967 33.4274 4.99092 32.5147C5.37218 31.602 5.9307 30.7746 6.63389 30.081C7.33707 29.3873 8.17084 28.8412 9.08653 28.4745C10.0022 28.1078 10.9815 27.9278 11.9672 27.9452C12.0781 27.9484 12.1886 27.9599 12.2978 27.9795L12.69 28.0276C12.9937 28.059 13.3007 28.0289 13.5926 27.939C13.8845 27.8491 14.1555 27.7012 14.3894 27.5041C14.6233 27.3071 14.8155 27.0649 14.9544 26.7919C15.0933 26.5189 15.1761 26.2206 15.198 25.9148C15.4116 22.9226 16.4722 20.0539 18.2551 17.6464C20.0381 15.239 22.469 13.393 25.2618 12.3259C28.0546 11.2588 31.0929 11.015 34.0191 11.6232C36.9453 12.2313 39.6375 13.6661 41.7787 15.7587C41.8704 16.0806 42.0353 16.3767 42.2605 16.6238C42.4856 16.8709 42.7648 17.0621 43.076 17.1824C44.4796 18.9056 45.4964 20.9125 46.0572 23.0662C46.6179 25.2198 46.7092 27.4696 46.3251 29.6619C46.2503 30.1179 46.3148 30.5859 46.51 31.0044C46.7052 31.4229 47.022 31.7722 47.4187 32.0065C47.8154 32.2409 48.2735 32.3491 48.7327 32.3171C49.1919 32.2851 49.6307 32.1144 49.9914 31.8273C51.0693 30.9471 52.4142 30.4626 53.8036 30.4539C54.6144 30.4539 55.4173 30.6142 56.1664 30.9257C56.9155 31.2372 57.5962 31.6938 58.1695 32.2694C58.7429 32.845 59.1977 33.5283 59.508 34.2804C59.8182 35.0324 59.9779 35.8384 59.9779 36.6524C59.9779 37.4665 59.8182 38.2725 59.508 39.0245C59.1977 39.7766 58.7429 40.4599 58.1695 41.0355C57.5962 41.6111 56.9155 42.0677 56.1664 42.3792C55.4173 42.6907 54.6144 42.851 53.8036 42.851L53.8196 42.8487Z" fill="white"/>
<path d="M43.5158 6.95532C43.7334 7.50969 44.1578 7.95704 44.6987 8.20229C45.2396 8.44754 45.8545 8.47136 46.4127 8.26868C46.9708 8.06601 47.4282 7.65282 47.6877 7.11692C47.9472 6.58102 47.9883 5.96465 47.8023 5.39881L46.3933 1.50755C46.291 1.22499 46.1343 0.965419 45.9321 0.743653C45.73 0.521888 45.4863 0.342271 45.2149 0.215059C44.667 -0.0418573 44.0398 -0.0697221 43.4714 0.137594C42.903 0.34491 42.4399 0.770425 42.1839 1.32053C41.928 1.87064 41.9003 2.50027 42.1068 3.07092L43.5158 6.95532Z" fill="white"/>
<path d="M71.1134 22.3373L67.0549 21.6163C66.4593 21.5109 65.8464 21.6475 65.351 21.9958C64.8556 22.3442 64.5184 22.8758 64.4135 23.4738C64.3086 24.0717 64.4446 24.6871 64.7916 25.1844C65.1385 25.6817 65.6681 26.0202 66.2637 26.1256L70.3222 26.8443C70.4538 26.869 70.5874 26.8812 70.7212 26.8809C71.2916 26.8806 71.8412 26.6656 72.2615 26.2785C72.6818 25.8913 72.9422 25.36 72.9915 24.7895C73.0407 24.219 72.8752 23.6507 72.5275 23.1967C72.1798 22.7428 71.6752 22.4361 71.1134 22.3373Z" fill="white"/>
<path d="M64.7838 15.4703C65.1844 15.4708 65.5779 15.3641 65.9239 15.1613L69.4898 13.1012C70.0092 12.7955 70.3871 12.296 70.541 11.7116C70.6949 11.1273 70.6123 10.5055 70.3113 9.98205C70.0102 9.45859 69.5152 9.07593 68.9341 8.91756C68.3531 8.75919 67.7332 8.83797 67.2098 9.13672L63.6438 11.1968C63.2092 11.4488 62.8695 11.8376 62.6774 12.3032C62.4854 12.7687 62.4517 13.2848 62.5816 13.7715C62.7115 14.2582 62.9977 14.6883 63.3959 14.995C63.7941 15.3017 64.2819 15.468 64.7838 15.468V15.4703Z" fill="white"/>
<path d="M55.714 8.33322C55.9956 8.43565 56.2946 8.48137 56.5938 8.46778C56.893 8.45419 57.1866 8.38155 57.4578 8.25401C57.7291 8.12647 57.9726 7.94653 58.1745 7.72447C58.3765 7.50241 58.5329 7.24259 58.6348 6.95983L60.0438 3.06857C60.2424 2.49974 60.2095 1.87524 59.9522 1.33064C59.6949 0.78603 59.2341 0.365283 58.6697 0.159733C58.1052 -0.0458165 57.4829 -0.0195772 56.9376 0.232755C56.3924 0.485087 55.9683 0.943145 55.7574 1.50749L54.3483 5.39875C54.2459 5.68144 54.1999 5.98164 54.2132 6.28216C54.2264 6.58268 54.2985 6.87765 54.4253 7.15018C54.5521 7.42272 54.7312 7.66748 54.9524 7.87048C55.1735 8.07347 55.4323 8.23071 55.714 8.33322Z" fill="white"/>
</svg>
